<svg xmlns="http://www.w3.org/2000/svg" viewBox="0 0 601.27 603"><defs><style>.cls-1{font-size:18px;fill:#ccc;font-family:MyriadPro-Regular, Myriad Pro;}.cls-2{letter-spacing:0.01em;}.cls-3{letter-spacing:-0.01em;}.cls-4{letter-spacing:-0.01em;}.cls-5{letter-spacing:0em;}.cls-6{letter-spacing:-0.01em;}.cls-7{letter-spacing:0.01em;}.cls-8{letter-spacing:0em;}.cls-9{letter-spacing:0em;}.cls-10{letter-spacing:0em;}.cls-11{letter-spacing:0em;}.cls-12{letter-spacing:0.01em;}.cls-13{letter-spacing:-0.02em;}.cls-14{letter-spacing:-0.04em;}.cls-15{letter-spacing:-0.01em;}.cls-16{letter-spacing:0em;}.cls-17{letter-spacing:-0.01em;}.cls-18{letter-spacing:0.01em;}.cls-19{letter-spacing:-0.08em;}.cls-20{letter-spacing:0em;}.cls-21{letter-spacing:-0.01em;}.cls-22{letter-spacing:-0.01em;}.cls-23{letter-spacing:-0.03em;}.cls-24{letter-spacing:0.02em;}.cls-25{letter-spacing:-0.01em;}.cls-26{letter-spacing:-0.01em;}.cls-27{letter-spacing:0.02em;}.cls-28{letter-spacing:0.01em;}.cls-29{letter-spacing:-0.02em;}.cls-30{letter-spacing:0em;}.cls-31{letter-spacing:-0.01em;}.cls-32{letter-spacing:-0.01em;}.cls-33{letter-spacing:0.02em;}.cls-34{letter-spacing:-0.08em;}.cls-35{letter-spacing:-0.01em;}.cls-36{letter-spacing:-0.01em;}.cls-37{letter-spacing:0.01em;}.cls-38{letter-spacing:0.02em;}.cls-39{letter-spacing:0em;}.cls-40{letter-spacing:0.01em;}.cls-41{letter-spacing:0.02em;}.cls-42{letter-spacing:-0.09em;}.cls-43{letter-spacing:0em;}.cls-44{letter-spacing:0em;}.cls-45{letter-spacing:-0.01em;}.cls-46{letter-spacing:0.02em;}.cls-47{letter-spacing:-0.08em;}.cls-48{letter-spacing:-0.01em;}.cls-49{letter-spacing:0.01em;}.cls-50{letter-spacing:-0.03em;}.cls-51{letter-spacing:0em;}.cls-52{letter-spacing:0em;}.cls-53{letter-spacing:0.01em;}.cls-54{letter-spacing:0.03em;}.cls-55{letter-spacing:-0.01em;}.cls-56{letter-spacing:0em;}.cls-57{letter-spacing:-0.01em;}.cls-58{letter-spacing:-0.01em;}.cls-59{letter-spacing:0em;}.cls-60{letter-spacing:-0.01em;}.cls-61{letter-spacing:-0.02em;}.cls-62{letter-spacing:-0.02em;}.cls-63{letter-spacing:-0.05em;}.cls-64{letter-spacing:-0.05em;}.cls-65{letter-spacing:-0.02em;}.cls-66{fill:#b3b3b3;opacity:0.39;}.cls-67{fill:#fff;}.cls-68{fill:none;stroke:#fff;stroke-miterlimit:10;}.cls-69{font-size:100px;font-family:SegoeScript, Segoe Script;}</style></defs><title>Fichier 1</title><g id="Calque_2" data-name="Calque 2"><g id="Calque_1-2" data-name="Calque 1"><text class="cls-1" transform="translate(1.05 31.78)"><tspan class="cls-2">M</tspan><tspan x="14.58" y="0">on dessin ne </tspan><tspan class="cls-3" x="112.53" y="0">r</tspan><tspan x="118.24" y="0">ep</tspan><tspan class="cls-4" x="137.5" y="0">r</tspan><tspan x="143.21" y="0">ése</tspan><tspan class="cls-5" x="168.37" y="0">n</tspan><tspan x="178.29" y="0">tait pas un chapea</tspan><tspan class="cls-6" x="315.16" y="0">u</tspan><tspan x="324.93" y="0">. </tspan><tspan class="cls-7" x="332.47" y="0">I</tspan><tspan x="336.95" y="0">l </tspan><tspan class="cls-3" x="345.02" y="0">r</tspan><tspan x="350.72" y="0">ep</tspan><tspan class="cls-3" x="369.98" y="0">r</tspan><tspan x="375.69" y="0">ése</tspan><tspan class="cls-8" x="400.85" y="0">n</tspan><tspan x="410.77" y="0">tait un se</tspan><tspan class="cls-9" x="479.26" y="0">r</tspan><tspan x="485.22" y="0">pe</tspan><tspan class="cls-8" x="504.48" y="0">n</tspan><tspan x="514.4" y="0">t boa qui </tspan><tspan x="0" y="21.6">digé</tspan><tspan class="cls-10" x="33.44" y="21.6">r</tspan><tspan x="39.24" y="21.6">ait un élépha</tspan><tspan class="cls-5" x="136.82" y="21.6">n</tspan><tspan class="cls-11" x="146.73" y="21.6">t</tspan><tspan x="152.64" y="21.6">. </tspan><tspan class="cls-12" x="160.18" y="21.6">J</tspan><tspan class="cls-13" x="166.98" y="21.6">’</tspan><tspan x="170.39" y="21.6">ai alors dessiné </tspan><tspan class="cls-2" x="287.19" y="21.6">l</tspan><tspan class="cls-14" x="291.54" y="21.6">’</tspan><tspan x="294.57" y="21.6">i</tspan><tspan class="cls-8" x="298.78" y="21.6">n</tspan><tspan class="cls-15" x="308.69" y="21.6">t</tspan><tspan x="314.54" y="21.6">é</tspan><tspan class="cls-9" x="323.56" y="21.6">r</tspan><tspan x="329.52" y="21.6">ieur du se</tspan><tspan class="cls-16" x="402.4" y="21.6">r</tspan><tspan x="408.36" y="21.6">pe</tspan><tspan class="cls-5" x="427.62" y="21.6">n</tspan><tspan x="437.54" y="21.6">t boa, afin que les </tspan><tspan class="cls-15" x="0" y="43.2">g</tspan><tspan class="cls-10" x="9.95" y="43.2">r</tspan><tspan x="15.75" y="43.2">andes personnes puisse</tspan><tspan class="cls-5" x="194.27" y="43.2">n</tspan><tspan x="204.19" y="43.2">t </tspan><tspan class="cls-15" x="213.96" y="43.2">c</tspan><tspan x="221.92" y="43.2">omp</tspan><tspan class="cls-4" x="257.06" y="43.2">r</tspan><tspan x="262.76" y="43.2">end</tspan><tspan class="cls-3" x="291.92" y="43.2">r</tspan><tspan class="cls-17" x="297.63" y="43.2">e</tspan><tspan x="306.43" y="43.2">. Elles o</tspan><tspan class="cls-8" x="361.17" y="43.2">n</tspan><tspan x="371.08" y="43.2">t </tspan><tspan class="cls-15" x="380.86" y="43.2">t</tspan><tspan x="386.71" y="43.2">oujours besoin </tspan><tspan class="cls-18" x="501.8" y="43.2">d</tspan><tspan class="cls-19" x="512.06" y="43.2">’</tspan><tspan class="cls-20" x="514.4" y="43.2">e</tspan><tspan x="523.36" y="43.2">xplica</tspan><tspan x="567.14" y="43.2">-</tspan><tspan x="0" y="64.8">tion</tspan><tspan class="cls-21" x="30.04" y="64.8">s</tspan><tspan x="36.97" y="64.8">. </tspan><tspan class="cls-2" x="44.51" y="64.8">M</tspan><tspan x="59.09" y="64.8">on dessin numé</tspan><tspan class="cls-3" x="178.16" y="64.8">r</tspan><tspan x="183.87" y="64.8">o 2 était </tspan><tspan class="cls-15" x="248.25" y="64.8">c</tspan><tspan x="256.21" y="64.8">omme ça : </tspan><tspan class="cls-22" x="337.05" y="64.8">L</tspan><tspan x="345.29" y="64.8">es </tspan><tspan class="cls-15" x="365.25" y="64.8">g</tspan><tspan class="cls-10" x="375.21" y="64.8">r</tspan><tspan x="381" y="64.8">andes personnes </tspan><tspan class="cls-23" x="511.88" y="64.8">m</tspan><tspan class="cls-19" x="526.3" y="64.8">’</tspan><tspan x="528.64" y="64.8">o</tspan><tspan class="cls-8" x="538.52" y="64.8">n</tspan><tspan x="548.44" y="64.8">t </tspan><tspan class="cls-15" x="0" y="86.4">c</tspan><tspan x="7.96" y="86.4">onseillé de laisser de </tspan><tspan class="cls-15" x="165.6" y="86.4">c</tspan><tspan x="173.55" y="86.4">ô</tspan><tspan class="cls-15" x="183.44" y="86.4">t</tspan><tspan x="189.29" y="86.4">é les dessins de se</tspan><tspan class="cls-16" x="324.03" y="86.4">r</tspan><tspan x="329.99" y="86.4">pe</tspan><tspan class="cls-5" x="349.25" y="86.4">n</tspan><tspan x="359.17" y="86.4">ts boas ou</tspan><tspan class="cls-4" x="435.61" y="86.4">v</tspan><tspan x="444.09" y="86.4">e</tspan><tspan class="cls-24" x="453.11" y="86.4">r</tspan><tspan x="459.43" y="86.4">ts ou </tspan><tspan class="cls-25" x="499.94" y="86.4">f</tspan><tspan x="504.97" y="86.4">e</tspan><tspan class="cls-9" x="513.98" y="86.4">r</tspan><tspan x="519.94" y="86.4">mé</tspan><tspan class="cls-26" x="543.97" y="86.4">s</tspan><tspan x="550.9" y="86.4">, et de </tspan><tspan class="cls-23" x="0" y="108">m</tspan><tspan class="cls-14" x="14.42" y="108">’</tspan><tspan x="17.44" y="108">i</tspan><tspan class="cls-8" x="21.65" y="108">n</tspan><tspan class="cls-15" x="31.57" y="108">t</tspan><tspan x="37.42" y="108">é</tspan><tspan class="cls-3" x="46.44" y="108">r</tspan><tspan x="52.15" y="108">esser plu</tspan><tspan class="cls-15" x="118.55" y="108">t</tspan><tspan x="124.4" y="108">ôt à la géo</tspan><tspan class="cls-15" x="202.25" y="108">g</tspan><tspan class="cls-10" x="212.2" y="108">r</tspan><tspan x="218" y="108">aphi</tspan><tspan class="cls-17" x="251.12" y="108">e</tspan><tspan x="259.92" y="108">, à </tspan><tspan class="cls-2" x="279.95" y="108">l</tspan><tspan x="284.31" y="108">’his</tspan><tspan class="cls-15" x="309.36" y="108">t</tspan><tspan x="315.21" y="108">oi</tspan><tspan class="cls-4" x="329.31" y="108">r</tspan><tspan class="cls-17" x="335.01" y="108">e</tspan><tspan x="343.81" y="108">, au calcul et à la </tspan><tspan class="cls-15" x="468.82" y="108">g</tspan><tspan class="cls-10" x="478.78" y="108">r</tspan><tspan x="484.57" y="108">ammai</tspan><tspan class="cls-3" x="536.16" y="108">r</tspan><tspan class="cls-17" x="541.86" y="108">e</tspan><tspan x="550.67" y="108">. </tspan><tspan class="cls-27" x="558.21" y="108">C</tspan><tspan class="cls-19" x="568.99" y="108">’</tspan><tspan x="571.33" y="108">est </tspan><tspan x="0" y="129.6">ainsi que </tspan><tspan class="cls-28" x="70.92" y="129.6">j</tspan><tspan class="cls-29" x="75.42" y="129.6">’</tspan><tspan x="78.82" y="129.6">ai abandonn</tspan><tspan class="cls-17" x="173.12" y="129.6">é</tspan><tspan x="181.92" y="129.6">, à </tspan><tspan class="cls-2" x="201.96" y="129.6">l</tspan><tspan class="cls-13" x="206.31" y="129.6">’</tspan><tspan x="209.71" y="129.6">âge de six an</tspan><tspan class="cls-21" x="306.43" y="129.6">s</tspan><tspan x="313.36" y="129.6">, une ma</tspan><tspan class="cls-15" x="377.33" y="129.6">g</tspan><tspan x="387.28" y="129.6">nifique ca</tspan><tspan class="cls-9" x="460.52" y="129.6">rr</tspan><tspan x="472.44" y="129.6">iè</tspan><tspan class="cls-3" x="485.67" y="129.6">r</tspan><tspan x="491.37" y="129.6">e de pei</tspan><tspan class="cls-30" x="550.66" y="129.6">n</tspan><tspan x="560.58" y="129.6">t</tspan><tspan class="cls-31" x="566.54" y="129.6">r</tspan><tspan class="cls-17" x="572.25" y="129.6">e</tspan><tspan x="581.05" y="129.6">. </tspan><tspan class="cls-12" x="0" y="151.2">J</tspan><tspan class="cls-13" x="6.8" y="151.2">’</tspan><tspan class="cls-6" x="10.21" y="151.2">a</tspan><tspan class="cls-8" x="18.74" y="151.2">v</tspan><tspan x="27.32" y="151.2">ais é</tspan><tspan class="cls-15" x="60.17" y="151.2">t</tspan><tspan x="66.02" y="151.2">é dé</tspan><tspan class="cls-15" x="98.03" y="151.2">c</tspan><tspan x="105.98" y="151.2">ou</tspan><tspan class="cls-10" x="125.78" y="151.2">r</tspan><tspan x="131.58" y="151.2">agé par </tspan><tspan class="cls-2" x="191.77" y="151.2">l</tspan><tspan class="cls-14" x="196.13" y="151.2">’</tspan><tspan x="199.15" y="151.2">insu</tspan><tspan class="cls-15" x="230.4" y="151.2">cc</tspan><tspan x="246.31" y="151.2">ès de mon dessin numé</tspan><tspan class="cls-3" x="423.34" y="151.2">r</tspan><tspan x="429.04" y="151.2">o 1 et de mon dessin </tspan><tspan x="0" y="172.8">numé</tspan><tspan class="cls-3" x="43.94" y="172.8">r</tspan><tspan x="49.64" y="172.8">o 2. </tspan><tspan class="cls-22" x="80.12" y="172.8">L</tspan><tspan x="88.36" y="172.8">es </tspan><tspan class="cls-15" x="108.32" y="172.8">g</tspan><tspan class="cls-10" x="118.28" y="172.8">r</tspan><tspan x="124.07" y="172.8">andes personnes ne </tspan><tspan class="cls-15" x="277.77" y="172.8">c</tspan><tspan x="285.73" y="172.8">omp</tspan><tspan class="cls-4" x="320.86" y="172.8">r</tspan><tspan x="326.57" y="172.8">enne</tspan><tspan class="cls-5" x="364.59" y="172.8">n</tspan><tspan x="374.5" y="172.8">t jamais </tspan><tspan class="cls-16" x="436.17" y="172.8">r</tspan><tspan x="442.13" y="172.8">ien </tspan><tspan class="cls-15" x="469.16" y="172.8">t</tspan><tspan x="475.01" y="172.8">ou</tspan><tspan class="cls-32" x="494.81" y="172.8">t</tspan><tspan x="500.66" y="172.8">es seule</tspan><tspan class="cls-26" x="559.95" y="172.8">s</tspan><tspan x="566.88" y="172.8">, et </tspan><tspan class="cls-33" x="0" y="194.4">c</tspan><tspan class="cls-34" x="8.37" y="194.4">’</tspan><tspan x="10.71" y="194.4">est f</tspan><tspan class="cls-5" x="41.89" y="194.4">a</tspan><tspan x="50.49" y="194.4">tiga</tspan><tspan class="cls-5" x="79.4" y="194.4">n</tspan><tspan class="cls-11" x="89.31" y="194.4">t</tspan><tspan x="95.22" y="194.4">, pour les enfa</tspan><tspan class="cls-5" x="199.65" y="194.4">n</tspan><tspan x="209.57" y="194.4">t</tspan><tspan class="cls-21" x="215.53" y="194.4">s</tspan><tspan x="222.46" y="194.4">, de </tspan><tspan class="cls-15" x="252.99" y="194.4">t</tspan><tspan x="258.84" y="194.4">oujours et </tspan><tspan class="cls-15" x="338.43" y="194.4">t</tspan><tspan x="344.28" y="194.4">oujours leur donner des </tspan><tspan class="cls-20" x="526.82" y="194.4">e</tspan><tspan x="535.78" y="194.4">xplica</tspan><tspan x="579.56" y="194.4">-</tspan><tspan x="0" y="216">tion</tspan><tspan class="cls-21" x="30.04" y="216">s</tspan><tspan x="36.97" y="216">. </tspan><tspan class="cls-12" x="44.51" y="216">J</tspan><tspan class="cls-13" x="51.32" y="216">’</tspan><tspan x="54.72" y="216">ai donc dû choisir un aut</tspan><tspan class="cls-4" x="238.68" y="216">r</tspan><tspan x="244.38" y="216">e métier et </tspan><tspan class="cls-28" x="328.93" y="216">j</tspan><tspan class="cls-13" x="333.43" y="216">’</tspan><tspan x="336.83" y="216">ai app</tspan><tspan class="cls-16" x="382.69" y="216">r</tspan><tspan x="388.65" y="216">is à pilo</tspan><tspan class="cls-15" x="444.88" y="216">t</tspan><tspan x="450.73" y="216">er des </tspan><tspan class="cls-35" x="499.56" y="216">a</tspan><tspan x="508.1" y="216">vion</tspan><tspan class="cls-36" x="540.84" y="216">s</tspan><tspan x="547.77" y="216">. </tspan><tspan class="cls-37" x="555.31" y="216">J</tspan><tspan class="cls-29" x="562.11" y="216">’</tspan><tspan x="565.51" y="216">ai </tspan><tspan class="cls-3" x="0" y="237.6">v</tspan><tspan x="8.48" y="237.6">olé un peu pa</tspan><tspan class="cls-38" x="111.08" y="237.6">r</tspan><tspan class="cls-15" x="117.39" y="237.6">t</tspan><tspan x="123.24" y="237.6">out dans le mond</tspan><tspan class="cls-17" x="254.7" y="237.6">e</tspan><tspan x="263.5" y="237.6">. </tspan><tspan class="cls-11" x="271.04" y="237.6">E</tspan><tspan x="279.84" y="237.6">t la géo</tspan><tspan class="cls-15" x="335.32" y="237.6">g</tspan><tspan class="cls-10" x="345.27" y="237.6">r</tspan><tspan x="351.07" y="237.6">aphi</tspan><tspan class="cls-17" x="384.19" y="237.6">e</tspan><tspan x="392.99" y="237.6">, </tspan><tspan class="cls-33" x="400.53" y="237.6">c</tspan><tspan class="cls-19" x="408.9" y="237.6">’</tspan><tspan class="cls-39" x="411.24" y="237.6">est </tspan><tspan class="cls-11" x="437.16" y="237.6">e</tspan><tspan x="446.12" y="237.6">xa</tspan><tspan class="cls-40" x="463.13" y="237.6">c</tspan><tspan class="cls-20" x="471.43" y="237.6">t</tspan><tspan x="477.34" y="237.6">, </tspan><tspan class="cls-23" x="484.88" y="237.6">m</tspan><tspan class="cls-29" x="499.3" y="237.6">’</tspan><tspan x="502.7" y="237.6">a beau</tspan><tspan class="cls-32" x="553.04" y="237.6">c</tspan><tspan x="561" y="237.6">oup </tspan><tspan x="0" y="259.2">se</tspan><tspan class="cls-41" x="16.15" y="259.2">r</tspan><tspan x="22.48" y="259.2">vi. Je s</tspan><tspan class="cls-35" x="69.51" y="259.2">a</tspan><tspan class="cls-8" x="78.05" y="259.2">v</tspan><tspan x="86.63" y="259.2">ais </tspan><tspan class="cls-3" x="110.46" y="259.2">r</tspan><tspan x="116.17" y="259.2">e</tspan><tspan class="cls-15" x="125.19" y="259.2">c</tspan><tspan x="133.14" y="259.2">onnaît</tspan><tspan class="cls-4" x="181.85" y="259.2">r</tspan><tspan class="cls-17" x="187.56" y="259.2">e</tspan><tspan x="196.36" y="259.2">, du p</tspan><tspan class="cls-3" x="238.03" y="259.2">r</tspan><tspan x="243.73" y="259.2">emier </tspan><tspan class="cls-15" x="290.7" y="259.2">c</tspan><tspan x="298.65" y="259.2">oup </tspan><tspan class="cls-2" x="332.51" y="259.2">d</tspan><tspan class="cls-34" x="342.77" y="259.2">’</tspan><tspan x="345.11" y="259.2">œi</tspan><tspan class="cls-3" x="364.85" y="259.2">l</tspan><tspan x="368.92" y="259.2">, la Chine de </tspan><tspan class="cls-2" x="463.65" y="259.2">l</tspan><tspan class="cls-42" x="468.01" y="259.2">’</tspan><tspan class="cls-43" x="470.12" y="259.2">A</tspan><tspan class="cls-44" x="481.08" y="259.2">r</tspan><tspan x="487.04" y="259.2">i</tspan><tspan class="cls-45" x="491.25" y="259.2">z</tspan><tspan x="498.83" y="259.2">ona. </tspan><tspan class="cls-46" x="534.91" y="259.2">C</tspan><tspan class="cls-47" x="545.7" y="259.2">’</tspan><tspan x="548.04" y="259.2">est </tspan><tspan x="0" y="280.8">t</tspan><tspan class="cls-3" x="5.96" y="280.8">r</tspan><tspan x="11.66" y="280.8">ès util</tspan><tspan class="cls-48" x="55.96" y="280.8">e</tspan><tspan x="64.76" y="280.8">, si </tspan><tspan class="cls-2" x="87.46" y="280.8">l</tspan><tspan class="cls-19" x="91.82" y="280.8">’</tspan><tspan x="94.16" y="280.8">on est éga</tspan><tspan class="cls-3" x="171.52" y="280.8">r</tspan><tspan x="177.23" y="280.8">é penda</tspan><tspan class="cls-8" x="238.14" y="280.8">n</tspan><tspan x="248.05" y="280.8">t la nui</tspan><tspan class="cls-20" x="298.69" y="280.8">t</tspan><tspan x="304.59" y="280.8">. </tspan><tspan class="cls-12" x="312.13" y="280.8">J</tspan><tspan class="cls-13" x="318.94" y="280.8">’</tspan><tspan x="322.34" y="280.8">ai ainsi e</tspan><tspan class="cls-6" x="386.09" y="280.8">u</tspan><tspan x="395.87" y="280.8">, au </tspan><tspan class="cls-15" x="425.82" y="280.8">c</tspan><tspan x="433.78" y="280.8">ours de ma vi</tspan><tspan class="cls-17" x="533.76" y="280.8">e</tspan><tspan x="542.56" y="280.8">, des </tspan><tspan x="0" y="302.4">tas de </tspan><tspan class="cls-15" x="48.56" y="302.4">c</tspan><tspan x="56.52" y="302.4">o</tspan><tspan class="cls-5" x="66.4" y="302.4">n</tspan><tspan x="76.32" y="302.4">ta</tspan><tspan class="cls-49" x="90.95" y="302.4">c</tspan><tspan x="99.25" y="302.4">ts </tspan><tspan class="cls-6" x="116.15" y="302.4">a</tspan><tspan class="cls-3" x="124.68" y="302.4">v</tspan><tspan x="133.16" y="302.4">ec des tas de gens sé</tspan><tspan class="cls-16" x="288.9" y="302.4">r</tspan><tspan x="294.85" y="302.4">ieux. </tspan><tspan class="cls-12" x="333.88" y="302.4">J</tspan><tspan class="cls-13" x="340.68" y="302.4">’</tspan><tspan x="344.08" y="302.4">ai beau</tspan><tspan class="cls-15" x="398.64" y="302.4">c</tspan><tspan x="406.6" y="302.4">oup </tspan><tspan class="cls-3" x="440.45" y="302.4">v</tspan><tspan class="cls-39" x="448.93" y="302.4">écu chez les </tspan><tspan class="cls-10" x="542.55" y="302.4">r</tspan><tspan x="548.34" y="302.4">andes </tspan><tspan x="0" y="324">personne</tspan><tspan class="cls-21" x="71.15" y="324">s</tspan><tspan x="78.08" y="324">. Je les ai vues de t</tspan><tspan class="cls-3" x="213.51" y="324">r</tspan><tspan x="219.22" y="324">ès p</tspan><tspan class="cls-4" x="249.42" y="324">r</tspan><tspan x="255.13" y="324">è</tspan><tspan class="cls-21" x="264.15" y="324">s</tspan><tspan x="271.08" y="324">. </tspan><tspan class="cls-45" x="278.62" y="324">Ç</tspan><tspan x="288.93" y="324">a </tspan><tspan class="cls-50" x="301.42" y="324">n</tspan><tspan class="cls-13" x="310.82" y="324">’</tspan><tspan x="314.22" y="324">a pas t</tspan><tspan class="cls-3" x="362.53" y="324">r</tspan><tspan x="368.24" y="324">op amélio</tspan><tspan class="cls-4" x="443.23" y="324">r</tspan><tspan x="448.93" y="324">é mon opinion. </tspan><tspan class="cls-51" x="0" y="345.6">Q</tspan><tspan x="12.46" y="345.6">uand </tspan><tspan class="cls-28" x="55.01" y="345.6">j</tspan><tspan class="cls-34" x="59.51" y="345.6">’</tspan><tspan class="cls-52" x="61.85" y="345.6">en </tspan><tspan class="cls-4" x="84.67" y="345.6">r</tspan><tspan x="90.38" y="345.6">en</tspan><tspan class="cls-15" x="109.38" y="345.6">c</tspan><tspan x="117.34" y="345.6">o</tspan><tspan class="cls-5" x="127.22" y="345.6">n</tspan><tspan x="137.14" y="345.6">t</tspan><tspan class="cls-10" x="143.1" y="345.6">r</tspan><tspan x="148.89" y="345.6">ais une qui me pa</tspan><tspan class="cls-10" x="280.31" y="345.6">r</tspan><tspan x="286.11" y="345.6">aissait un peu lucid</tspan><tspan class="cls-17" x="429.22" y="345.6">e</tspan><tspan x="438.02" y="345.6">, je faisais </tspan><tspan class="cls-53" x="511.88" y="345.6">l</tspan><tspan class="cls-19" x="516.23" y="345.6">’</tspan><tspan class="cls-20" x="518.57" y="345.6">e</tspan><tspan x="527.54" y="345.6">xpé</tspan><tspan x="555.13" y="345.6">-</tspan><tspan class="cls-16" x="0" y="367.2">r</tspan><tspan x="5.96" y="367.2">ien</tspan><tspan class="cls-15" x="29.18" y="367.2">c</tspan><tspan x="37.13" y="367.2">e sur elle de mon dessin numé</tspan><tspan class="cls-3" x="264.13" y="367.2">r</tspan><tspan x="269.84" y="367.2">o 1 que </tspan><tspan class="cls-28" x="329.47" y="367.2">j</tspan><tspan class="cls-29" x="333.97" y="367.2">’</tspan><tspan x="337.37" y="367.2">ai </tspan><tspan class="cls-15" x="354.07" y="367.2">t</tspan><tspan x="359.92" y="367.2">oujours </tspan><tspan class="cls-15" x="420.73" y="367.2">c</tspan><tspan x="428.68" y="367.2">onse</tspan><tspan class="cls-54" x="464.7" y="367.2">r</tspan><tspan class="cls-3" x="471.04" y="367.2">v</tspan><tspan class="cls-55" x="479.52" y="367.2">é</tspan><tspan class="cls-56" x="488.32" y="367.2">. Je </tspan><tspan class="cls-31" x="515.35" y="367.2">v</tspan><tspan x="523.83" y="367.2">oulais </tspan><tspan x="0" y="388.8">s</tspan><tspan class="cls-6" x="7.13" y="388.8">a</tspan><tspan class="cls-3" x="15.66" y="388.8">v</tspan><tspan x="24.14" y="388.8">oir si elle était v</tspan><tspan class="cls-10" x="139.73" y="388.8">r</tspan><tspan x="145.53" y="388.8">aime</tspan><tspan class="cls-8" x="182.45" y="388.8">n</tspan><tspan x="192.36" y="388.8">t </tspan><tspan class="cls-57" x="202.14" y="388.8">c</tspan><tspan x="210.09" y="388.8">omp</tspan><tspan class="cls-3" x="245.23" y="388.8">r</tspan><tspan x="250.94" y="388.8">éhensi</tspan><tspan class="cls-3" x="300.29" y="388.8">v</tspan><tspan class="cls-48" x="308.77" y="388.8">e</tspan><tspan x="317.57" y="388.8">. </tspan><tspan class="cls-2" x="325.11" y="388.8">M</tspan><tspan x="339.69" y="388.8">ais </tspan><tspan class="cls-57" x="363.52" y="388.8">t</tspan><tspan x="369.37" y="388.8">oujours elle me </tspan><tspan class="cls-31" x="488.37" y="388.8">r</tspan><tspan x="494.08" y="388.8">épondait : « </tspan><tspan class="cls-27" x="0" y="410.4">C</tspan><tspan class="cls-19" x="10.78" y="410.4">’</tspan><tspan x="13.12" y="410.4">est un chapea</tspan><tspan class="cls-6" x="117.43" y="410.4">u</tspan><tspan x="127.2" y="410.4">. » </tspan><tspan class="cls-20" x="146.1" y="410.4">A</tspan><tspan x="157.07" y="410.4">lors je ne lui pa</tspan><tspan class="cls-16" x="269.17" y="410.4">r</tspan><tspan x="275.13" y="410.4">lais ni de se</tspan><tspan class="cls-9" x="360.35" y="410.4">r</tspan><tspan x="366.31" y="410.4">pe</tspan><tspan class="cls-8" x="385.57" y="410.4">n</tspan><tspan x="395.49" y="410.4">ts boa</tspan><tspan class="cls-21" x="441.19" y="410.4">s</tspan><tspan x="448.12" y="410.4">, ni de </tspan><tspan class="cls-58" x="496.67" y="410.4">f</tspan><tspan x="501.69" y="410.4">o</tspan><tspan class="cls-3" x="511.57" y="410.4">r</tspan><tspan x="517.28" y="410.4">êts </tspan><tspan x="0" y="432">vie</tspan><tspan class="cls-6" x="21.89" y="432">r</tspan><tspan x="27.63" y="432">ge</tspan><tspan class="cls-21" x="46.71" y="432">s</tspan><tspan x="53.64" y="432">, ni </tspan><tspan class="cls-2" x="79.2" y="432">d</tspan><tspan class="cls-19" x="89.46" y="432">’</tspan><tspan x="91.8" y="432">é</tspan><tspan class="cls-15" x="100.82" y="432">t</tspan><tspan x="106.67" y="432">oile</tspan><tspan class="cls-21" x="134.03" y="432">s</tspan><tspan x="140.96" y="432">. Je me mettais à sa po</tspan><tspan class="cls-38" x="307.85" y="432">r</tspan><tspan class="cls-15" x="314.17" y="432">t</tspan><tspan x="320.02" y="432">é</tspan><tspan class="cls-17" x="329.04" y="432">e</tspan><tspan x="337.84" y="432">. Je lui pa</tspan><tspan class="cls-16" x="405.99" y="432">r</tspan><tspan x="411.94" y="432">lais de b</tspan><tspan class="cls-16" x="473.25" y="432">r</tspan><tspan x="479.21" y="432">idg</tspan><tspan class="cls-17" x="503.63" y="432">e</tspan><tspan x="512.44" y="432">, de gol</tspan><tspan class="cls-23" x="567.15" y="432">f</tspan><tspan x="571.82" y="432">, </tspan><tspan x="0" y="453.6">de politique et de c</tspan><tspan class="cls-10" x="144.47" y="453.6">r</tspan><tspan class="cls-6" x="150.26" y="453.6">a</tspan><tspan class="cls-5" x="158.79" y="453.6">va</tspan><tspan class="cls-15" x="175.98" y="453.6">t</tspan><tspan class="cls-39" x="181.83" y="453.6">e</tspan><tspan class="cls-36" x="190.85" y="453.6">s</tspan><tspan x="197.78" y="453.6">. </tspan><tspan class="cls-20" x="205.32" y="453.6">E</tspan><tspan x="214.13" y="453.6">t la </tspan><tspan class="cls-15" x="240.64" y="453.6">g</tspan><tspan class="cls-10" x="250.59" y="453.6">r</tspan><tspan x="256.39" y="453.6">ande personne était bien </tspan><tspan class="cls-15" x="447.92" y="453.6">c</tspan><tspan x="455.88" y="453.6">o</tspan><tspan class="cls-5" x="465.76" y="453.6">n</tspan><tspan class="cls-15" x="475.68" y="453.6">t</tspan><tspan x="481.53" y="453.6">e</tspan><tspan class="cls-8" x="490.55" y="453.6">n</tspan><tspan class="cls-32" x="500.47" y="453.6">t</tspan><tspan x="506.32" y="453.6">e de </tspan><tspan class="cls-15" x="0" y="475.2">c</tspan><tspan x="7.96" y="475.2">onnaît</tspan><tspan class="cls-4" x="56.66" y="475.2">r</tspan><tspan class="cls-52" x="62.37" y="475.2">e un homme aussi </tspan><tspan class="cls-59" x="202.53" y="475.2">r</tspan><tspan x="208.33" y="475.2">aisonnabl</tspan><tspan class="cls-48" x="281.37" y="475.2">e</tspan><tspan x="290.17" y="475.2">. </tspan><tspan class="cls-12" x="297.72" y="475.2">J</tspan><tspan class="cls-13" x="304.52" y="475.2">’</tspan><tspan x="307.92" y="475.2">ai ainsi </tspan><tspan class="cls-3" x="362.66" y="475.2">v</tspan><tspan x="371.14" y="475.2">écuseu</tspan><tspan class="cls-4" x="424.2" y="475.2">l</tspan><tspan x="428.27" y="475.2">, sans personne </tspan><tspan class="cls-60" x="547.52" y="475.2">a</tspan><tspan class="cls-3" x="556.05" y="475.2">v</tspan><tspan x="564.53" y="475.2">ec </tspan><tspan x="0" y="496.8">qui pa</tspan><tspan class="cls-16" x="47" y="496.8">r</tspan><tspan x="52.95" y="496.8">ler </tspan><tspan class="cls-3" x="75.92" y="496.8">v</tspan><tspan x="84.4" y="496.8">é</tspan><tspan class="cls-16" x="93.42" y="496.8">r</tspan><tspan x="99.38" y="496.8">itableme</tspan><tspan class="cls-5" x="165.76" y="496.8">n</tspan><tspan class="cls-20" x="175.68" y="496.8">t</tspan><tspan x="181.58" y="496.8">,jusq</tspan><tspan class="cls-61" x="216.86" y="496.8">u</tspan><tspan class="cls-13" x="226.38" y="496.8">’</tspan><tspan x="229.79" y="496.8">à une panne dans le dése</tspan><tspan class="cls-38" x="418.91" y="496.8">r</tspan><tspan x="425.23" y="496.8">t du </tspan><tspan class="cls-51" x="458.89" y="496.8">S</tspan><tspan x="467.81" y="496.8">aha</tspan><tspan class="cls-10" x="495.16" y="496.8">r</tspan><tspan x="500.95" y="496.8">a, il y a six </tspan><tspan x="0" y="518.4">an</tspan><tspan class="cls-21" x="18.67" y="518.4">s</tspan><tspan x="25.6" y="518.4">. </tspan><tspan class="cls-51" x="33.14" y="518.4">Q</tspan><tspan x="45.59" y="518.4">uelque chose </tspan><tspan class="cls-62" x="149.56" y="518.4">s</tspan><tspan class="cls-34" x="156.38" y="518.4">’</tspan><tspan x="158.72" y="518.4">était cassé dans mon mo</tspan><tspan class="cls-15" x="343.54" y="518.4">t</tspan><tspan x="349.39" y="518.4">eu</tspan><tspan class="cls-63" x="368.33" y="518.4">r</tspan><tspan x="373.26" y="518.4">. </tspan><tspan class="cls-11" x="380.8" y="518.4">E</tspan><tspan x="389.61" y="518.4">t </tspan><tspan class="cls-15" x="399.38" y="518.4">c</tspan><tspan x="407.34" y="518.4">omme je </tspan><tspan class="cls-23" x="477.28" y="518.4">n</tspan><tspan class="cls-29" x="486.68" y="518.4">’</tspan><tspan class="cls-35" x="490.08" y="518.4">a</tspan><tspan class="cls-8" x="498.61" y="518.4">v</tspan><tspan x="507.2" y="518.4">ais </tspan><tspan class="cls-35" x="531.03" y="518.4">a</tspan><tspan class="cls-3" x="539.56" y="518.4">v</tspan><tspan x="548.04" y="518.4">ec </tspan><tspan x="0" y="540">moi ni mécanicien, ni passager</tspan><tspan class="cls-21" x="229.57" y="540">s</tspan><tspan x="236.5" y="540">, je me p</tspan><tspan class="cls-3" x="299.34" y="540">r</tspan><tspan x="305.04" y="540">épa</tspan><tspan class="cls-10" x="332.98" y="540">r</tspan><tspan x="338.77" y="540">ai à ess</tspan><tspan class="cls-6" x="391.24" y="540">a</tspan><tspan class="cls-4" x="399.77" y="540">y</tspan><tspan x="408.07" y="540">er de </tspan><tspan class="cls-3" x="449.78" y="540">r</tspan><tspan x="455.48" y="540">éussi</tspan><tspan class="cls-64" x="492.89" y="540">r</tspan><tspan x="497.82" y="540">, </tspan><tspan class="cls-57" x="505.36" y="540">t</tspan><tspan x="511.21" y="540">out seu</tspan><tspan class="cls-3" x="566.85" y="540">l</tspan><tspan x="570.92" y="540">, </tspan><tspan x="0" y="561.6">une </tspan><tspan class="cls-3" x="32.74" y="561.6">r</tspan><tspan x="38.45" y="561.6">épa</tspan><tspan class="cls-10" x="66.38" y="561.6">r</tspan><tspan class="cls-8" x="72.18" y="561.6">a</tspan><tspan x="80.78" y="561.6">tion difficil</tspan><tspan class="cls-17" x="160.2" y="561.6">e</tspan><tspan x="169" y="561.6">. </tspan><tspan class="cls-27" x="176.54" y="561.6">C</tspan><tspan class="cls-19" x="187.32" y="561.6">’</tspan><tspan x="189.66" y="561.6">était pour moi une question de vie ou de mo</tspan><tspan class="cls-38" x="522.95" y="561.6">r</tspan><tspan class="cls-20" x="529.26" y="561.6">t</tspan><tspan x="535.17" y="561.6">. </tspan><tspan class="cls-37" x="542.71" y="561.6">J</tspan><tspan class="cls-65" x="549.51" y="561.6">’</tspan><tspan class="cls-60" x="552.92" y="561.6">a</tspan><tspan class="cls-30" x="561.45" y="561.6">v</tspan><tspan x="570.03" y="561.6">ais </tspan></text><rect class="cls-66" x="40" y="276" width="25" height="19"/><rect class="cls-66" x="81" y="340" width="25" height="19"/><rect class="cls-66" x="329" y="234" width="25" height="19"/><rect class="cls-66" x="443" y="363" width="19" height="19"/><rect class="cls-66" x="556" y="231" width="25" height="19"/><rect class="cls-66" x="492" y="382" width="25" height="19"/><rect class="cls-66" x="343" y="449" width="22" height="19"/><rect class="cls-66" x="69" y="146" width="25" height="19"/><path class="cls-67" d="M596.5.5v596H.5V.5ZM581,294.61c0-155.4-126-281.38-281.38-281.38S18.23,139.21,18.23,294.61,144.21,576,299.61,576,581,450,581,294.61Z"/><circle class="cls-68" cx="299.61" cy="294.61" r="281.38"/><rect class="cls-68" x="0.5" y="0.5" width="596" height="596"/><text class="cls-69" transform="translate(43 323.57)">adnotatio</text></g></g></svg>