<svg xmlns="http://www.w3.org/2000/svg" viewBox="0 0 1792.93 13.04"><defs><style>.cls-1{font-size:12px;fill:#7e57c2;font-family:MyriadPro-Regular, Myriad Pro;}.cls-2{letter-spacing:-0.01em;}.cls-3{letter-spacing:-0.01em;}.cls-4{letter-spacing:-0.01em;}.cls-5{letter-spacing:-0.03em;}.cls-6{letter-spacing:-0.08em;}.cls-7{letter-spacing:0em;}.cls-8{letter-spacing:-0.01em;}.cls-9{letter-spacing:0em;}.cls-10{letter-spacing:0em;}.cls-11{letter-spacing:0em;}.cls-12{letter-spacing:-0.01em;}.cls-13{letter-spacing:0.02em;}.cls-14{letter-spacing:-0.01em;}.cls-15{letter-spacing:0em;}.cls-16{letter-spacing:-0.01em;}.cls-17{letter-spacing:-0.04em;}.cls-18{letter-spacing:0em;}.cls-19{letter-spacing:0em;}.cls-20{letter-spacing:-0.01em;}.cls-21{letter-spacing:-0.01em;}.cls-22{letter-spacing:-0.01em;}.cls-23{letter-spacing:-0.01em;}.cls-24{letter-spacing:0.01em;}.cls-25{letter-spacing:0em;}.cls-26{letter-spacing:0.02em;}.cls-27{letter-spacing:0.01em;}.cls-28{letter-spacing:-0.02em;}.cls-29{letter-spacing:-0.01em;}.cls-30{letter-spacing:0.01em;}.cls-31{letter-spacing:-0.01em;}.cls-32{letter-spacing:-0.04em;}.cls-33{fill:#fff;opacity:0.2;}</style></defs><title>text1</title><g id="Calque_2" data-name="Calque 2"><g id="Calque_1-2" data-name="Calque 1"><text class="cls-1" transform="translate(0 10.04)"><tspan class="cls-2">L</tspan><tspan x="5.5" y="0">es </tspan><tspan class="cls-3" x="18.8" y="0">g</tspan><tspan class="cls-4" x="25.44" y="0">r</tspan><tspan x="29.3" y="0">andes personnes </tspan><tspan class="cls-5" x="116.55" y="0">m</tspan><tspan class="cls-6" x="126.17" y="0">’</tspan><tspan x="127.73" y="0">o</tspan><tspan class="cls-7" x="134.31" y="0">n</tspan><tspan x="140.93" y="0">t </tspan><tspan class="cls-3" x="147.44" y="0">c</tspan><tspan x="152.75" y="0">onseillé de laisser de </tspan><tspan class="cls-3" x="257.84" y="0">c</tspan><tspan x="263.15" y="0">ô</tspan><tspan class="cls-8" x="269.73" y="0">t</tspan><tspan x="273.63" y="0">é les dessins de se</tspan><tspan class="cls-9" x="363.46" y="0">r</tspan><tspan class="cls-10" x="367.43" y="0">pe</tspan><tspan class="cls-11" x="380.27" y="0">n</tspan><tspan x="386.89" y="0">ts boas ou</tspan><tspan class="cls-12" x="437.85" y="0">v</tspan><tspan x="443.5" y="0">e</tspan><tspan class="cls-13" x="449.51" y="0">r</tspan><tspan x="453.72" y="0">ts ou </tspan><tspan class="cls-14" x="480.73" y="0">f</tspan><tspan x="484.08" y="0">e</tspan><tspan class="cls-15" x="490.09" y="0">r</tspan><tspan x="494.07" y="0">mé</tspan><tspan class="cls-16" x="510.09" y="0">s</tspan><tspan class="cls-10" x="514.71" y="0">, et de </tspan><tspan class="cls-5" x="547.58" y="0">m</tspan><tspan class="cls-17" x="557.2" y="0">’</tspan><tspan class="cls-18" x="559.21" y="0">i</tspan><tspan class="cls-19" x="562.02" y="0">n</tspan><tspan class="cls-3" x="568.63" y="0">t</tspan><tspan x="572.53" y="0">é</tspan><tspan class="cls-20" x="578.54" y="0">r</tspan><tspan x="582.35" y="0">esser plu</tspan><tspan class="cls-8" x="626.62" y="0">t</tspan><tspan x="630.52" y="0">ôt à la géo</tspan><tspan class="cls-21" x="682.42" y="0">g</tspan><tspan class="cls-22" x="689.05" y="0">r</tspan><tspan x="692.92" y="0">aphi</tspan><tspan class="cls-23" x="715" y="0">e</tspan><tspan x="720.86" y="0">, à </tspan><tspan class="cls-24" x="734.22" y="0">l</tspan><tspan x="737.12" y="0">’his</tspan><tspan class="cls-8" x="753.83" y="0">t</tspan><tspan x="757.73" y="0">oi</tspan><tspan class="cls-20" x="767.12" y="0">r</tspan><tspan class="cls-23" x="770.92" y="0">e</tspan><tspan x="776.79" y="0">, au calcul et à la </tspan><tspan class="cls-8" x="860.13" y="0">g</tspan><tspan class="cls-25" x="866.77" y="0">r</tspan><tspan x="870.63" y="0">ammai</tspan><tspan class="cls-20" x="905.02" y="0">r</tspan><tspan class="cls-23" x="908.83" y="0">e</tspan><tspan x="914.7" y="0">. </tspan><tspan class="cls-26" x="919.72" y="0">C</tspan><tspan class="cls-6" x="926.91" y="0">’</tspan><tspan x="928.47" y="0">est ainsi que </tspan><tspan class="cls-27" x="993.03" y="0">j</tspan><tspan class="cls-28" x="996.03" y="0">’</tspan><tspan x="998.3" y="0">ai abandonn</tspan><tspan class="cls-29" x="1061.17" y="0">é</tspan><tspan x="1067.03" y="0">, à </tspan><tspan class="cls-24" x="1080.39" y="0">l</tspan><tspan class="cls-28" x="1083.29" y="0">’</tspan><tspan x="1085.56" y="0">âge de six an</tspan><tspan class="cls-16" x="1150.03" y="0">s</tspan><tspan x="1154.65" y="0">, une ma</tspan><tspan class="cls-8" x="1197.3" y="0">g</tspan><tspan x="1203.94" y="0">nifique ca</tspan><tspan class="cls-15" x="1252.77" y="0">rr</tspan><tspan x="1260.71" y="0">iè</tspan><tspan class="cls-20" x="1269.53" y="0">r</tspan><tspan x="1273.33" y="0">e de pei</tspan><tspan class="cls-7" x="1312.86" y="0">n</tspan><tspan x="1319.47" y="0">t</tspan><tspan class="cls-20" x="1323.44" y="0">r</tspan><tspan class="cls-23" x="1327.25" y="0">e</tspan><tspan x="1333.11" y="0">. </tspan><tspan class="cls-30" x="1338.14" y="0">J</tspan><tspan class="cls-28" x="1342.68" y="0">’</tspan><tspan class="cls-31" x="1344.94" y="0">a</tspan><tspan class="cls-7" x="1350.63" y="0">v</tspan><tspan x="1356.36" y="0">ais é</tspan><tspan class="cls-8" x="1378.26" y="0">t</tspan><tspan x="1382.16" y="0">é dé</tspan><tspan class="cls-21" x="1403.49" y="0">c</tspan><tspan x="1408.79" y="0">ou</tspan><tspan class="cls-22" x="1422" y="0">r</tspan><tspan x="1425.86" y="0">agé par </tspan><tspan class="cls-24" x="1465.99" y="0">l</tspan><tspan class="cls-32" x="1468.89" y="0">’</tspan><tspan x="1470.91" y="0">insu</tspan><tspan class="cls-8" x="1491.74" y="0">cc</tspan><tspan x="1502.35" y="0">ès de mon dessin numé</tspan><tspan class="cls-20" x="1620.36" y="0">r</tspan><tspan x="1624.17" y="0">o 1 et de mon dessin numé</tspan><tspan class="cls-12" x="1759.24" y="0">r</tspan><tspan x="1763.04" y="0">o 2</tspan></text><rect class="cls-33" x="59.93" y="2.02" width="54" height="11"/><rect class="cls-33" x="351.93" y="2.02" width="44" height="11"/><rect class="cls-33" x="609.93" y="1.02" width="32" height="12"/><rect class="cls-33" x="945.93" y="1.02" width="23" height="11"/><rect class="cls-33" x="1296.93" y="2.02" width="36" height="11"/><rect class="cls-33" x="1729.93" y="1.02" width="40" height="11"/></g></g></svg>