<svg xmlns="http://www.w3.org/2000/svg" xmlns:xlink="http://www.w3.org/1999/xlink" viewBox="0 0 682.04 630.21"><defs><style>.cls-1,.cls-3,.cls-55,.cls-57{fill:none;}.cls-2{fill:#b3b3b3;}.cls-3{stroke:#ccc;}.cls-3,.cls-55,.cls-57{stroke-miterlimit:10;}.cls-4{font-size:16.51px;}.cls-15,.cls-32,.cls-4,.cls-58,.cls-71,.cls-89,.cls-93{font-family:MyriadPro-Regular, Myriad Pro;}.cls-5{letter-spacing:0em;}.cls-6{letter-spacing:-0.01em;}.cls-7{letter-spacing:-0.01em;}.cls-8{letter-spacing:0em;}.cls-9{letter-spacing:-0.01em;}.cls-10{letter-spacing:0em;}.cls-11{letter-spacing:0.01em;}.cls-12{letter-spacing:-0.02em;}.cls-13{letter-spacing:-0.01em;}.cls-14{letter-spacing:0.01em;}.cls-15,.cls-32{font-size:11.01px;}.cls-16{letter-spacing:-0.02em;}.cls-17,.cls-48{letter-spacing:-0.01em;}.cls-18{letter-spacing:-0.02em;}.cls-19{letter-spacing:0em;}.cls-20{letter-spacing:0em;}.cls-21,.cls-51{letter-spacing:-0.03em;}.cls-22{letter-spacing:0em;}.cls-23{clip-path:url(#clip-path);}.cls-24{letter-spacing:-0.02em;}.cls-25{letter-spacing:-0.01em;}.cls-26{letter-spacing:-0.03em;}.cls-27{letter-spacing:-0.01em;}.cls-28{letter-spacing:-0.09em;}.cls-29{letter-spacing:-0.01em;}.cls-30{letter-spacing:0.19em;}.cls-31{font-size:17.1px;font-family:TimesNewRomanPSMT, Times New Roman;}.cls-32,.cls-37{letter-spacing:0.01em;}.cls-33{letter-spacing:-0.09em;}.cls-34{letter-spacing:-0.01em;}.cls-35{letter-spacing:-0.02em;}.cls-36{letter-spacing:0em;}.cls-38{letter-spacing:-0.08em;}.cls-39{letter-spacing:-0.01em;}.cls-40,.cls-48,.cls-51{fill:red;}.cls-41,.cls-53,.cls-56{fill:#ff1d25;}.cls-42{letter-spacing:-0.01em;}.cls-43{letter-spacing:-0.01em;}.cls-44{letter-spacing:0em;}.cls-45{letter-spacing:0.01em;}.cls-46{letter-spacing:-0.02em;}.cls-47{letter-spacing:0em;}.cls-49{letter-spacing:-0.01em;}.cls-50{letter-spacing:-0.05em;}.cls-52{letter-spacing:-0.02em;}.cls-53,.cls-54{opacity:0.21;}.cls-54{fill:#ff7bac;}.cls-55{stroke:red;}.cls-56{opacity:0.44;}.cls-57{stroke:#000;}.cls-58{font-size:19.26px;}.cls-59{letter-spacing:-0.01em;}.cls-60{letter-spacing:-0.01em;}.cls-61{letter-spacing:-0.01em;}.cls-62{letter-spacing:-0.07em;}.cls-63{letter-spacing:0em;}.cls-64{letter-spacing:0.01em;}.cls-65{letter-spacing:-0.01em;}.cls-66{letter-spacing:0em;}.cls-67{letter-spacing:0em;}.cls-68{letter-spacing:0em;}.cls-69{letter-spacing:-0.05em;}.cls-70{font-size:14px;}.cls-71{font-size:12px;}.cls-72{letter-spacing:-0.01em;}.cls-73{letter-spacing:-0.02em;}.cls-74{letter-spacing:0em;}.cls-75{letter-spacing:-0.01em;}.cls-76{letter-spacing:-0.01em;}.cls-77{letter-spacing:-0.02em;}.cls-78{letter-spacing:0.01em;}.cls-79{letter-spacing:0em;}.cls-80{letter-spacing:-0.04em;}.cls-81{letter-spacing:-0.03em;}.cls-82{letter-spacing:-0.01em;}.cls-83{letter-spacing:-0.01em;}.cls-84{letter-spacing:-0.03em;}.cls-85{letter-spacing:0.02em;}.cls-86{letter-spacing:0em;}.cls-87{letter-spacing:-0.01em;}.cls-88{letter-spacing:-0.01em;}.cls-89{font-size:19.26px;}.cls-90{letter-spacing:0em;}.cls-91{letter-spacing:0em;}.cls-92{letter-spacing:-0.01em;}.cls-93{font-size:11.01px;}</style><clipPath id="clip-path"><rect class="cls-1" x="243.87" y="126.66" width="428.25" height="19.24"/></clipPath></defs><title>Visualisation5</title><g id="Calque_2" data-name="Calque 2"><g id="Calque_1-2" data-name="Calque 1"><rect class="cls-2" x="84.84" y="56.68" width="576.56" height="26.14"/><line class="cls-3" x1="238.61" y1="56.71" x2="238.27" y2="179.83"/><line class="cls-3" x1="481.61" y1="56.71" x2="481.83" y2="179.83"/><line class="cls-3" x1="400.64" y1="56.67" x2="400.64" y2="179.83"/><text class="cls-4" transform="translate(126.12 75.23)"><tspan class="cls-5">É</tspan><tspan x="8.07" y="0">tiquet</tspan><tspan class="cls-6" x="49.54" y="0">t</tspan><tspan x="54.9" y="0">e</tspan></text><text class="cls-4" transform="translate(258.22 75.23)"><tspan class="cls-7">C</tspan><tspan x="9.4" y="0">o</tspan><tspan class="cls-8" x="18.46" y="0">n</tspan><tspan class="cls-9" x="27.56" y="0">t</tspan><tspan class="cls-10" x="32.93" y="0">e</tspan><tspan class="cls-11" x="41.15" y="0">x</tspan><tspan class="cls-6" x="49.01" y="0">t</tspan><tspan x="54.37" y="0">e gauche</tspan></text><text class="cls-4" transform="translate(419.22 75.23)"><tspan class="cls-12">P</tspan><tspan x="8.52" y="0">i</tspan><tspan class="cls-13" x="12.38" y="0">v</tspan><tspan x="20.16" y="0">ot</tspan></text><text class="cls-4" transform="translate(501.78 75.23)"><tspan class="cls-7">C</tspan><tspan x="9.4" y="0">o</tspan><tspan class="cls-8" x="18.46" y="0">n</tspan><tspan class="cls-9" x="27.56" y="0">t</tspan><tspan class="cls-5" x="32.93" y="0">e</tspan><tspan class="cls-14" x="41.15" y="0">x</tspan><tspan class="cls-9" x="49.01" y="0">t</tspan><tspan x="54.38" y="0">e d</tspan><tspan class="cls-13" x="75.46" y="0">r</tspan><tspan x="80.7" y="0">oit</tspan></text><rect class="cls-1" x="83.46" y="55.3" width="577.93" height="125.22"/><rect class="cls-2" x="84.15" y="98.64" width="576.56" height="16.51"/><rect class="cls-2" x="84.15" y="131.67" width="576.56" height="16.51"/><rect class="cls-2" x="84.15" y="164.69" width="576.56" height="16.51"/><text class="cls-15" transform="translate(91.72 92.7)"><tspan class="cls-16">P</tspan><tspan class="cls-17" x="5.68" y="0">r</tspan><tspan x="9.17" y="0">onom</tspan></text><text class="cls-15" transform="translate(405.46 92.7)">J</text><text class="cls-15" transform="translate(91.72 110.59)"><tspan class="cls-18">P</tspan><tspan x="5.58" y="0">o</tspan><tspan class="cls-19" x="11.63" y="0">n</tspan><tspan x="17.69" y="0">tu</tspan><tspan class="cls-20" x="27.4" y="0">a</tspan><tspan x="32.66" y="0">tion</tspan></text><text class="cls-15" transform="translate(244.46 111.97)">J</text><text class="cls-15" transform="translate(91.72 127.1)"><tspan class="cls-21">V</tspan><tspan x="5.78" y="0">e</tspan><tspan class="cls-22" x="11.29" y="0">r</tspan><tspan x="14.94" y="0">be</tspan></text><text class="cls-15" transform="translate(405.46 111.97)">‘</text><g class="cls-23"><text class="cls-15" transform="translate(243.87 142.69) scale(0.57 1)">J<tspan class="cls-24" x="4.07" y="0">’</tspan><tspan class="cls-25" x="6.13" y="0">é</tspan><tspan class="cls-26" x="11.58" y="0">t</tspan><tspan class="cls-27" x="14.93" y="0">a</tspan><tspan class="cls-28" x="20.17" y="0">i</tspan><tspan class="cls-29" x="21.75" y="0">s</tspan><tspan class="cls-30" x="25.96" y="0"> </tspan></text><text class="cls-15" transform="translate(272.26 9.21) scale(0.57 1)">J<tspan class="cls-24" x="4.07" y="0">’</tspan></text></g><g class="cls-23"><text class="cls-31" transform="translate(535.29 142.69) scale(0.57 1)"> </text></g><text class="cls-32" transform="translate(244.46 127.1)">J<tspan class="cls-33" x="4.16" y="0">’</tspan></text><text class="cls-15" transform="translate(91.72 143.61)"><tspan class="cls-34">A</tspan><tspan x="6.6" y="0">d</tspan><tspan class="cls-17" x="12.81" y="0">v</tspan><tspan x="18" y="0">e</tspan><tspan class="cls-22" x="23.51" y="0">r</tspan><tspan x="27.16" y="0">be</tspan></text><text class="cls-15" transform="translate(404.54 142.93)">bien</text><text class="cls-15" transform="translate(488.48 142.93)">plus isolé q<tspan class="cls-35" x="51.24" y="0">u</tspan><tspan x="57.07" y="0">’un nauf</tspan><tspan class="cls-36" x="94.55" y="0">r</tspan><tspan x="98.09" y="0">agé sur un ... </tspan></text><text class="cls-15" transform="translate(91.72 160.13)"><tspan class="cls-34">A</tspan><tspan x="6.6" y="0">d</tspan><tspan class="cls-17" x="12.81" y="0">v</tspan><tspan x="18" y="0">e</tspan><tspan class="cls-22" x="23.51" y="0">r</tspan><tspan x="27.16" y="0">be</tspan></text><text class="cls-15" transform="translate(243.31 159.67)"><tspan class="cls-37">J</tspan><tspan class="cls-38" x="4.16" y="0">’</tspan><tspan x="5.59" y="0">étais bien </tspan></text><text class="cls-15" transform="translate(405.46 159.21)">plus</text><text class="cls-15" transform="translate(488.02 160.13)">isolé q<tspan class="cls-35" x="29.62" y="0">u</tspan><tspan x="35.45" y="0">’un nauf</tspan><tspan class="cls-36" x="72.93" y="0">r</tspan><tspan x="76.47" y="0">agé sur un </tspan><tspan class="cls-36" x="126.65" y="0">r</tspan><tspan x="130.19" y="0">adeau ... </tspan></text><text class="cls-15" transform="translate(91.72 176.64)"><tspan class="cls-21">V</tspan><tspan x="5.78" y="0">e</tspan><tspan class="cls-22" x="11.29" y="0">r</tspan><tspan x="14.94" y="0">be</tspan></text><text class="cls-15" transform="translate(241.25 175.95)"><tspan class="cls-37">J</tspan><tspan class="cls-38" x="4.16" y="0">’</tspan><tspan x="5.59" y="0" xml:space="preserve">étais bien plus  </tspan></text><text class="cls-15" transform="translate(405.46 175.72)">isolé</text><text class="cls-15" transform="translate(487.56 174.35)">q<tspan class="cls-35" x="6.2" y="0">u</tspan><tspan x="12.02" y="0">’un nauf</tspan><tspan class="cls-36" x="49.5" y="0">r</tspan><tspan x="53.05" y="0">agé sur un </tspan><tspan class="cls-36" x="103.22" y="0">r</tspan><tspan x="106.77" y="0">adeau au ... </tspan></text><text class="cls-15" transform="translate(488.25 111.28)">étais bien plus isolé q<tspan class="cls-35" x="97.77" y="0">u</tspan><tspan x="103.6" y="0">’un nauf</tspan><tspan class="cls-36" x="141.08" y="0">r</tspan><tspan x="144.62" y="0">agé ...</tspan></text><text class="cls-15" transform="translate(487.1 95.22)"><tspan class="cls-38">’</tspan><tspan x="1.43" y="0">étais bien plus isolé q</tspan><tspan class="cls-35" x="99.2" y="0">u</tspan><tspan x="105.03" y="0">’un nauf</tspan><tspan class="cls-36" x="142.51" y="0">r</tspan><tspan x="146.05" y="0">agé ...</tspan></text><text class="cls-15" transform="translate(226.57 259.2)"><tspan class="cls-39">L</tspan><tspan x="5.04" y="0">e p</tspan><tspan class="cls-17" x="19.15" y="0">r</tspan><tspan x="22.64" y="0">emier soir </tspan><tspan class="cls-40" x="70.27" y="0">je</tspan><tspan x="78.46" y="0"> </tspan><tspan class="cls-41" x="80.8" y="0">me</tspan><tspan x="95.49" y="0" xml:space="preserve"> suis donc endo</tspan><tspan class="cls-22" x="167.02" y="0">r</tspan><tspan x="170.67" y="0">mi sur le sable à mille</tspan><tspan x="0" y="13.21">milles de </tspan><tspan class="cls-42" x="43.22" y="13.21">t</tspan><tspan x="46.79" y="13.21">ou</tspan><tspan class="cls-42" x="58.9" y="13.21">t</tspan><tspan x="62.48" y="13.21">e </tspan><tspan class="cls-43" x="70.33" y="13.21">t</tspan><tspan x="73.91" y="13.21">e</tspan><tspan class="cls-44" x="79.42" y="13.21">r</tspan><tspan class="cls-17" x="83.07" y="13.21">r</tspan><tspan x="86.56" y="13.21">e habi</tspan><tspan class="cls-42" x="114.66" y="13.21">t</tspan><tspan x="118.24" y="13.21">é</tspan><tspan class="cls-34" x="123.75" y="13.21">e</tspan><tspan x="129.13" y="13.21">. </tspan><tspan class="cls-37" x="133.75" y="13.21">J</tspan><tspan class="cls-38" x="137.91" y="13.21">’</tspan><tspan x="139.34" y="13.21">étais bien plus isolé q</tspan><tspan class="cls-35" x="237.11" y="13.21">u</tspan><tspan x="242.93" y="13.21">’un nauf</tspan><tspan class="cls-36" x="280.42" y="13.21">r</tspan><tspan x="283.96" y="13.21">agé</tspan><tspan x="0" y="26.42">sur un </tspan><tspan class="cls-36" x="30.87" y="26.42">r</tspan><tspan x="34.41" y="26.42">adeau au milieu de </tspan><tspan class="cls-45" x="123.75" y="26.42">l</tspan><tspan class="cls-46" x="126.41" y="26.42">’</tspan><tspan class="cls-22" x="128.43" y="26.42">O</tspan><tspan class="cls-42" x="136.06" y="26.42">c</tspan><tspan x="140.92" y="26.42">éan. </tspan><tspan class="cls-47" x="162.46" y="26.42">A</tspan><tspan x="169.17" y="26.42">lors </tspan><tspan class="cls-48" x="188.1" y="26.42">v</tspan><tspan class="cls-40" x="193.29" y="26.42">ous</tspan><tspan x="209.76" y="26.42" xml:space="preserve"> ima</tspan><tspan class="cls-42" x="229.15" y="26.42">g</tspan><tspan x="235.24" y="26.42">inez</tspan><tspan class="cls-40" x="0" y="39.63">ma</tspan><tspan x="14.49" y="39.63" xml:space="preserve"> su</tspan><tspan class="cls-22" x="27.24" y="39.63">r</tspan><tspan x="30.89" y="39.63">p</tspan><tspan class="cls-22" x="37.15" y="39.63">r</tspan><tspan x="40.8" y="39.63">is</tspan><tspan class="cls-34" x="47.73" y="39.63">e</tspan><tspan x="53.11" y="39.63">, au le</tspan><tspan class="cls-49" x="79.54" y="39.63">v</tspan><tspan x="84.73" y="39.63">er du jou</tspan><tspan class="cls-50" x="125.57" y="39.63">r</tspan><tspan x="128.58" y="39.63">, quand une d</tspan><tspan class="cls-49" x="191.65" y="39.63">r</tspan><tspan x="195.14" y="39.63">ôle de peti</tspan><tspan class="cls-43" x="243.68" y="39.63">t</tspan><tspan x="247.26" y="39.63">e </tspan><tspan class="cls-49" x="255.11" y="39.63">v</tspan><tspan x="260.29" y="39.63">oix</tspan><tspan class="cls-51" x="0" y="52.84">m</tspan><tspan class="cls-52" x="8.82" y="52.84">’</tspan><tspan x="10.9" y="52.84">a </tspan><tspan class="cls-17" x="18.54" y="52.84">r</tspan><tspan x="22.03" y="52.84">é</tspan><tspan class="cls-49" x="27.54" y="52.84">v</tspan><tspan x="32.73" y="52.84">eill</tspan><tspan class="cls-34" x="46.01" y="52.84">é</tspan><tspan x="51.4" y="52.84">.</tspan></text><rect class="cls-53" x="57.32" y="81.44" width="624.72" height="17.89"/><rect class="cls-54" x="358.67" y="260.33" width="5.5" height="12.38"/><path class="cls-55" d="M360.45,261.51c1.08-95.83,21-173.15,44.6-172.89"/><rect class="cls-56" x="399.95" y="81.44" width="81.19" height="17.89"/><line class="cls-57" x1="25.67" y1="55.3" x2="25.67" y2="179.14"/><line class="cls-57" x1="24.98" y1="247.26" x2="24.98" y2="318.12"/><text class="cls-58" transform="translate(17.79 169.51) rotate(-90)"><tspan class="cls-59">C</tspan><tspan x="10.96" y="0">on</tspan><tspan class="cls-60" x="32.23" y="0">c</tspan><tspan x="40.74" y="0">o</tspan><tspan class="cls-61" x="51.32" y="0">r</tspan><tspan x="57.43" y="0">dan</tspan><tspan class="cls-60" x="88.27" y="0">c</tspan><tspan x="96.78" y="0">e</tspan></text><text class="cls-58" transform="translate(19.17 338.76) rotate(-90)"><tspan class="cls-62">T</tspan><tspan class="cls-63" x="8.21" y="0">e</tspan><tspan class="cls-64" x="17.8" y="0">x</tspan><tspan class="cls-65" x="26.97" y="0">t</tspan><tspan x="33.23" y="0">e </tspan><tspan class="cls-60" x="46.97" y="0">c</tspan><tspan x="55.48" y="0">ou</tspan><tspan class="cls-66" x="76.67" y="0">r</tspan><tspan x="82.88" y="0">a</tspan><tspan class="cls-67" x="92.16" y="0">n</tspan><tspan class="cls-68" x="102.77" y="0">t</tspan></text><text class="cls-15" transform="translate(488.45 126.48)">bien plus isolé q<tspan class="cls-35" x="74.04" y="0">u</tspan><tspan x="79.86" y="0">’un nauf</tspan><tspan class="cls-36" x="117.35" y="0">r</tspan><tspan x="120.89" y="0">agé su</tspan><tspan class="cls-69" x="150.62" y="0">r</tspan><tspan x="153.64" y="0">...</tspan><tspan class="cls-70" x="160.47" y="0"> </tspan></text><polyline class="cls-57" points="305.11 506.21 225.11 506.21 225.11 477.21"/><polyline class="cls-57" points="225.11 419.21 145.11 419.21 145.11 390.21"/><line class="cls-57" x1="304.11" y1="477.71" x2="224.11" y2="477.71"/><text class="cls-71" transform="translate(226.11 422.98)"><tspan class="cls-72">L</tspan><tspan x="5.5" y="0">e petit </tspan><tspan class="cls-73" x="40.19" y="0">P</tspan><tspan class="cls-74" x="46.38" y="0">r</tspan><tspan x="50.35" y="0">in</tspan><tspan class="cls-75" x="59.82" y="0">c</tspan><tspan x="65.12" y="0">e: </tspan><tspan class="cls-73" x="76.16" y="0">P</tspan><tspan class="cls-76" x="82.35" y="0">r</tspan><tspan x="86.16" y="0">onom</tspan></text><text class="cls-71" transform="translate(101.45 423.06)">20</text><polyline class="cls-57" points="225.11 448.21 145.11 448.21 145.11 419.21"/><text class="cls-71" transform="translate(226.11 450.98)"><tspan class="cls-72">L</tspan><tspan x="5.5" y="0">e petit </tspan><tspan class="cls-73" x="40.19" y="0">P</tspan><tspan class="cls-74" x="46.38" y="0">r</tspan><tspan x="50.35" y="0">in</tspan><tspan class="cls-75" x="59.82" y="0">c</tspan><tspan x="65.12" y="0">e: </tspan><tspan class="cls-77" x="76.16" y="0">P</tspan><tspan x="82.25" y="0">on</tspan><tspan class="cls-78" x="95.49" y="0">c</tspan><tspan x="101.03" y="0">tu</tspan><tspan class="cls-79" x="111.61" y="0">a</tspan><tspan x="117.35" y="0">tion</tspan></text><text class="cls-71" transform="translate(307.11 509.98)"><tspan class="cls-72">L</tspan><tspan x="5.5" y="0">e petit </tspan><tspan class="cls-73" x="40.19" y="0">P</tspan><tspan class="cls-74" x="46.38" y="0">r</tspan><tspan x="50.35" y="0">in</tspan><tspan class="cls-75" x="59.82" y="0">c</tspan><tspan x="65.12" y="0">e:</tspan><tspan class="cls-80" x="73.62" y="0"> </tspan><tspan class="cls-81" x="75.73" y="0">V</tspan><tspan x="82.03" y="0">e</tspan><tspan class="cls-74" x="88.04" y="0">r</tspan><tspan x="92.01" y="0">b</tspan><tspan class="cls-82" x="98.84" y="0">e</tspan><tspan x="104.71" y="0">, </tspan><tspan class="cls-82" x="109.74" y="0">A</tspan><tspan x="116.94" y="0">uxiliai</tspan><tspan class="cls-83" x="146.15" y="0">r</tspan><tspan x="149.95" y="0">e «êt</tspan><tspan class="cls-76" x="173.52" y="0">r</tspan><tspan x="177.32" y="0">e»</tspan></text><polyline class="cls-57" points="305.11 535.21 225.11 535.21 225.11 506.21"/><text class="cls-71" transform="translate(307.11 538.98)"><tspan class="cls-72">L</tspan><tspan x="5.5" y="0">e petit </tspan><tspan class="cls-73" x="40.19" y="0">P</tspan><tspan class="cls-74" x="46.38" y="0">r</tspan><tspan x="50.35" y="0">in</tspan><tspan class="cls-75" x="59.82" y="0">c</tspan><tspan x="65.12" y="0">e:</tspan><tspan class="cls-80" x="73.62" y="0"> </tspan><tspan class="cls-81" x="75.73" y="0">V</tspan><tspan x="82.03" y="0">e</tspan><tspan class="cls-74" x="88.04" y="0">r</tspan><tspan x="92.01" y="0">b</tspan><tspan class="cls-82" x="98.84" y="0">e</tspan><tspan x="104.71" y="0">,</tspan></text><text class="cls-71" transform="translate(307.11 479.98)"><tspan class="cls-72">L</tspan><tspan x="5.5" y="0">e petit </tspan><tspan class="cls-73" x="40.19" y="0">P</tspan><tspan class="cls-74" x="46.38" y="0">r</tspan><tspan x="50.35" y="0">in</tspan><tspan class="cls-75" x="59.82" y="0">c</tspan><tspan x="65.12" y="0">e:</tspan><tspan class="cls-80" x="73.62" y="0"> </tspan><tspan class="cls-81" x="75.73" y="0">V</tspan><tspan x="82.03" y="0">e</tspan><tspan class="cls-74" x="88.04" y="0">r</tspan><tspan x="92.01" y="0">be</tspan></text><text class="cls-71" transform="translate(415.45 537.54)"> <tspan class="cls-84" x="2.54" y="0">P</tspan><tspan x="8.62" y="0">a</tspan><tspan class="cls-85" x="14.4" y="0">r</tspan><tspan class="cls-86" x="18.61" y="0">t</tspan><tspan x="22.55" y="0">. passé</tspan></text><polyline class="cls-57" points="225.11 477.21 145.11 477.21 145.11 448.21"/><polyline class="cls-57" points="145.11 505.21 145.11 505.21 145.11 476.21"/><polyline class="cls-57" points="145.11 535.21 145.11 535.21 145.11 505.21"/><polyline class="cls-57" points="225.11 563.21 145.11 563.21 145.11 534.21"/><circle class="cls-2" cx="225.11" cy="477.21" r="12"/><line class="cls-57" x1="304.11" y1="562.71" x2="224.11" y2="562.71"/><polyline class="cls-57" points="304.11 593.21 224.11 593.21 224.11 564.21"/><polyline class="cls-57" points="304.11 622.21 224.11 622.21 224.11 593.21"/><circle class="cls-2" cx="225.11" cy="563.21" r="12"/><text class="cls-71" transform="translate(307.11 566.98)"><tspan class="cls-72">L</tspan><tspan x="5.5" y="0">e petit </tspan><tspan class="cls-73" x="40.19" y="0">P</tspan><tspan class="cls-74" x="46.38" y="0">r</tspan><tspan x="50.35" y="0">in</tspan><tspan class="cls-75" x="59.82" y="0">c</tspan><tspan x="65.12" y="0">e: </tspan><tspan class="cls-82" x="76.16" y="0">A</tspan><tspan x="83.36" y="0">d</tspan><tspan class="cls-83" x="90.13" y="0">v</tspan><tspan x="95.78" y="0">e</tspan><tspan class="cls-74" x="101.79" y="0">r</tspan><tspan x="105.77" y="0">be</tspan></text><text class="cls-71" transform="translate(307.11 596.98)"><tspan class="cls-72">L</tspan><tspan x="5.5" y="0">e petit </tspan><tspan class="cls-73" x="40.19" y="0">P</tspan><tspan class="cls-74" x="46.38" y="0">r</tspan><tspan x="50.35" y="0">in</tspan><tspan class="cls-75" x="59.82" y="0">c</tspan><tspan x="65.12" y="0">e: </tspan><tspan class="cls-82" x="76.16" y="0">A</tspan><tspan x="83.36" y="0">d</tspan><tspan class="cls-83" x="90.13" y="0">v</tspan><tspan x="95.78" y="0">e</tspan><tspan class="cls-74" x="101.79" y="0">r</tspan><tspan x="105.77" y="0">b</tspan><tspan class="cls-82" x="112.59" y="0">e</tspan><tspan x="118.46" y="0">, «bien»</tspan></text><text class="cls-71" transform="translate(307.11 626.98)"><tspan class="cls-72">L</tspan><tspan x="5.5" y="0">e petit </tspan><tspan class="cls-73" x="40.19" y="0">P</tspan><tspan class="cls-74" x="46.38" y="0">r</tspan><tspan x="50.35" y="0">in</tspan><tspan class="cls-75" x="59.82" y="0">c</tspan><tspan x="65.12" y="0">e: </tspan><tspan class="cls-82" x="76.16" y="0">A</tspan><tspan x="83.36" y="0">d</tspan><tspan class="cls-83" x="90.13" y="0">v</tspan><tspan x="95.78" y="0">e</tspan><tspan class="cls-74" x="101.79" y="0">r</tspan><tspan x="105.77" y="0">b</tspan><tspan class="cls-82" x="112.59" y="0">e</tspan><tspan x="118.46" y="0">, </tspan><tspan class="cls-87" x="123.49" y="0">C</tspan><tspan x="130.32" y="0">ompa</tspan><tspan class="cls-88" x="159.52" y="0">r</tspan><tspan class="cls-79" x="163.39" y="0">a</tspan><tspan x="169.13" y="0">tif</tspan></text><text class="cls-71" transform="translate(101.45 451.06)">21</text><text class="cls-71" transform="translate(101.45 506.06)">22</text><text class="cls-71" transform="translate(101.45 533.06)">25</text><text class="cls-71" transform="translate(102.45 596.06)">23</text><text class="cls-71" transform="translate(102.45 621.06)">24</text><line class="cls-57" x1="25.11" y1="384.21" x2="25.11" y2="624.21"/><text class="cls-89" transform="translate(16.12 520.88) rotate(-90)"><tspan class="cls-90">A</tspan><tspan class="cls-91" x="11.73" y="0">r</tspan><tspan x="18.1" y="0">b</tspan><tspan class="cls-92" x="29.06" y="0">r</tspan><tspan x="35.17" y="0">e</tspan></text><text class="cls-93" transform="translate(404.86 125.78)">étais</text></g></g></svg>